Normalized EMG Linear Envelopes
nRows=131
nColumns=4

endheader
time	 med_gas_r	  soleus_r	 tib_ant_r	
2.57661	  0.011311	  0.011809	  0.007034	
2.64819	  0.010909	  0.011976	  0.007072	
2.71976	  0.010640	  0.012015	  0.006127	
2.79133	  0.010457	  0.011937	  0.005184	
2.8629	  0.010171	  0.011875	  0.004667	
2.93448	  0.010039	  0.011915	  0.004419	
3.00605	  0.010008	  0.012052	  0.004465	
3.07762	  0.010008	  0.011992	  0.005026	
3.14919	  0.010049	  0.012045	  0.006260	
3.22077	  0.010186	  0.012527	  0.007697	
3.29234	  0.010402	  0.013056	  0.007800	
3.36391	  0.010639	  0.013339	  0.006864	
3.43548	  0.010958	  0.013185	  0.005875	
3.50706	  0.011470	  0.012763	  0.005018	
3.57863	  0.011917	  0.012354	  0.004377	
3.6502	  0.011837	  0.012091	  0.004043	
3.72177	  0.011788	  0.011950	  0.004080	
3.79335	  0.011794	  0.012019	  0.004673	
3.86492	  0.012059	  0.012176	  0.005890	
3.93649	  0.012280	  0.012047	  0.007471	
4.00806	  0.012194	  0.011855	  0.008497	
4.07964	  0.011462	  0.011723	  0.007960	
4.15121	  0.010754	  0.011599	  0.006651	
4.22278	  0.010587	  0.011542	  0.005596	
4.29435	  0.010789	  0.011639	  0.005183	
4.36593	  0.011082	  0.011644	  0.005177	
4.4375	  0.011417	  0.011525	  0.005216	
4.50907	  0.011584	  0.011634	  0.005310	
4.58065	  0.011390	  0.011598	  0.005619	
4.65222	  0.011335	  0.011121	  0.006216	
4.72379	  0.012052	  0.010640	  0.006921	
4.79536	  0.013349	  0.010629	  0.006953	
4.86694	  0.013889	  0.011686	  0.006105	
4.93851	  0.013476	  0.014312	  0.005277	
5.01008	  0.012843	  0.019395	  0.004832	
5.08165	  0.012588	  0.025906	  0.005052	
5.15323	  0.011988	  0.028669	  0.005793	
5.2248	  0.011299	  0.026265	  0.006461	
5.29637	  0.012001	  0.025636	  0.006420	
5.36794	  0.014241	  0.030869	  0.006242	
5.43952	  0.017520	  0.042400	  0.007852	
5.51109	  0.023001	  0.067271	  0.012754	
5.58266	  0.031566	  0.110353	  0.020411	
5.65423	  0.040942	  0.159926	  0.026665	
5.72581	  0.049236	  0.205623	  0.028610	
5.79738	  0.054959	  0.240306	  0.027873	
5.86895	  0.054765	  0.237667	  0.026526	
5.94052	  0.052550	  0.213050	  0.025029	
6.0121	  0.054502	  0.217362	  0.024285	
6.08367	  0.066439	  0.281709	  0.026709	
6.15524	  0.086738	  0.381919	  0.032325	
6.22681	  0.104969	  0.470093	  0.038004	
6.29839	  0.117870	  0.528177	  0.041416	
6.36996	  0.128692	  0.563460	  0.043776	
6.44153	  0.134165	  0.559272	  0.044865	
6.5131	  0.137744	  0.528040	  0.044756	
6.58468	  0.144912	  0.523551	  0.044354	
6.65625	  0.156767	  0.565920	  0.043918	
6.72782	  0.173569	  0.637851	  0.044455	
6.7994	  0.188782	  0.674910	  0.044595	
6.87097	  0.198382	  0.673232	  0.046107	
6.94254	  0.206454	  0.660520	  0.050742	
7.01411	  0.210084	  0.643522	  0.055245	
7.08569	  0.209373	  0.623609	  0.056425	
7.15726	  0.211060	  0.614907	  0.054289	
7.22883	  0.211676	  0.630883	  0.052686	
7.3004	  0.214147	  0.663537	  0.052145	
7.37198	  0.223004	  0.702179	  0.052091	
7.44355	  0.232545	  0.736816	  0.051122	
7.51512	  0.241758	  0.764834	  0.051568	
7.58669	  0.260302	  0.782050	  0.053307	
7.65827	  0.287146	  0.790486	  0.055251	
7.72984	  0.316317	  0.781882	  0.056132	
7.80141	  0.342510	  0.768276	  0.057062	
7.87298	  0.369988	  0.784220	  0.061370	
7.94456	  0.396517	  0.789352	  0.067973	
8.01613	  0.405243	  0.757394	  0.071803	
8.0877	  0.416128	  0.734504	  0.072742	
8.15927	  0.427834	  0.737511	  0.072249	
8.23085	  0.444029	  0.758984	  0.068381	
8.30242	  0.462296	  0.786608	  0.062355	
8.37399	  0.452659	  0.813303	  0.059015	
8.44556	  0.424328	  0.856180	  0.060545	
8.51714	  0.397324	  0.906759	  0.063538	
8.58871	  0.390884	  0.927870	  0.064708	
8.66028	  0.399867	  0.921862	  0.063791	
8.73185	  0.432958	  0.907033	  0.061347	
8.80343	  0.485120	  0.905622	  0.060154	
8.875	  0.528376	  0.899659	  0.059350	
8.94657	  0.536334	  0.909615	  0.058118	
9.01815	  0.523190	  0.919751	  0.059103	
9.08972	  0.502113	  0.903155	  0.061454	
9.16129	  0.481679	  0.882343	  0.063948	
9.23286	  0.457800	  0.868661	  0.065442	
9.30444	  0.435362	  0.851727	  0.067434	
9.37601	  0.426398	  0.838058	  0.068555	
9.44758	  0.433319	  0.836386	  0.065979	
9.51915	  0.463661	  0.857452	  0.064894	
9.59073	  0.489222	  0.882023	  0.066028	
9.6623	  0.491519	  0.881649	  0.066079	
9.73387	  0.496422	  0.866683	  0.068824	
9.80544	  0.500844	  0.877236	  0.075416	
9.87702	  0.497557	  0.927198	  0.081742	
9.94859	  0.492690	  0.987830	  0.082618	
10.0202	  0.487931	  0.989928	  0.077929	
10.0917	  0.487406	  0.942805	  0.073978	
10.1633	  0.487221	  0.895778	  0.072074	
10.2349	  0.490588	  0.896133	  0.070291	
10.3065	  0.491262	  0.892332	  0.067477	
10.378	  0.483105	  0.870980	  0.064524	
10.4496	  0.459163	  0.829489	  0.062499	
10.5212	  0.416235	  0.746228	  0.058881	
10.5927	  0.371312	  0.647880	  0.056114	
10.6643	  0.338431	  0.569289	  0.055348	
10.7359	  0.316146	  0.551844	  0.055634	
10.8075	  0.310036	  0.580502	  0.055902	
10.879	  0.310401	  0.609598	  0.056065	
10.9506	  0.304115	  0.584391	  0.052905	
11.0222	  0.282019	  0.520488	  0.046450	
11.0937	  0.252919	  0.463622	  0.040741	
11.1653	  0.230355	  0.401232	  0.036858	
11.2369	  0.225116	  0.343452	  0.034479	
11.3085	  0.228196	  0.292590	  0.032962	
11.38	  0.223304	  0.251966	  0.030805	
11.4516	  0.205820	  0.224743	  0.028538	
11.5232	  0.186629	  0.208617	  0.026633	
11.5948	  0.167621	  0.199190	  0.024881	
11.6663	  0.149200	  0.188966	  0.024161	
11.7379	  0.129593	  0.172884	  0.023543	
11.8095	  0.109196	  0.155554	  0.021694	
11.881	  0.087563	  0.138324	  0.019841	
